<svg width="691" height="683" viewBox="0 0 691 683" fill="none" xmlns="http://www.w3.org/2000/svg">
<mask id="mask0_16370_2" style="mask-type:luminance" maskUnits="userSpaceOnUse" x="4" y="0" width="683" height="683">
<path d="M686.667 0H4V682.667H686.667V0Z" fill="white"/>
</mask>
<g mask="url(#mask0_16370_2)">
<g filter="url(#filter0_d_16370_2)">
<path d="M340 160.8C327.6 165.6 328 165.2 265.733 241.733C224.4 292.8 204.267 316.533 202.8 316.267C201.6 316 196.8 315.6 192 315.6C182.933 315.467 177.067 317.467 170.933 323.2C169.2 324.667 136.8 365.733 99.0667 414.4L30.2667 502.667H19.8667C10.2667 502.667 9.33336 502.933 6.80002 506.133C3.06669 510.8 3.33336 515.333 7.33336 519.333L10.5334 522.667H345.333H680.133L683.333 519.333C687.333 515.467 687.6 510.8 684 506.267C681.467 503.067 680.133 502.8 671.067 502.4L660.8 502L586.533 378.133C545.6 310.133 510.8 252.933 509.2 251.2C504.133 245.867 495.067 242.267 486.533 242.267C480.133 242.267 476.8 243.2 466.267 248.267L453.733 254.4L409.867 210.4C385.467 186 363.733 165.333 360.8 163.733C355.6 161.067 343.733 159.333 340 160.8ZM396.8 225.467L440.933 269.6L438.533 277.867C435.2 288.533 435.333 291.467 439.333 295.333C446.667 302.8 454 297.867 457.733 283.2L460.267 273.733L473.2 267.467C484.933 261.867 486.533 261.467 490.4 262.8C494.267 264.133 501.6 275.867 565.6 382.533C604.533 447.467 636.667 501.067 636.933 501.6C637.2 502.267 623.2 502.667 605.733 502.667H573.867L504.667 442.533C466.533 409.467 434.133 381.333 432.8 380C430.267 377.467 430.4 377.067 437.067 354C444.133 329.733 444.4 326.8 439.467 322.667C436.267 320.133 429.6 320.4 426.8 323.467C425.333 324.8 422 333.733 419.333 343.333C416.667 352.8 414 361.067 413.467 361.6C413.067 362.133 396.8 348.667 377.333 331.733C357.867 314.8 339.6 299.867 336.667 298.533C330.267 295.6 317.733 295.2 311.467 297.867C309.067 298.8 296.133 308.8 282.667 320L258.267 340.4L248.133 336.133C242.533 333.733 234.8 330.533 231.067 328.933C227.2 327.333 224 325.733 224 325.333C224.133 323.6 339.333 183.2 341.867 181.6C348.533 177.733 350.8 179.467 396.8 225.467ZM434.667 408.133C492.933 458.8 541.2 500.8 542 501.467C542.667 502.267 502.933 502.533 442 502.4L340.8 502L309.067 434C291.733 396.533 276.267 363.467 274.8 360.4L272.133 354.933L295.467 335.467C316.267 318.133 319.333 316 323.733 316C328.4 316 335.333 321.733 434.667 408.133ZM221.867 346.667C237.333 353.333 250.667 359.2 251.467 359.733C252.533 360.4 313.867 490 318.267 500.933C318.8 502.267 300.4 502.667 228.8 502.667C179.2 502.667 138.667 502.267 138.667 501.867C138.667 501.333 148.933 482.533 161.333 460.133C175.067 435.333 184 417.867 184 415.6C184 408 172.667 403.333 167.733 408.933C166.533 410.267 154.667 431.067 141.2 455.333C127.867 479.467 116.267 500.133 115.333 501.067C114.267 502.267 107.067 502.667 84.9334 502.4L56.1334 502L118.8 421.333C153.2 376.933 182.933 339.333 184.8 337.6C186.667 336 189.333 334.667 190.933 334.667C192.4 334.667 206.4 340.133 221.867 346.667Z" fill="#1C1B21"/>
</g>
</g>
<defs>
<filter id="filter0_d_16370_2" x="0.158936" y="160.264" width="690.368" height="370.403" filterUnits="userSpaceOnUse" color-interpolation-filters="sRGB">
<feFlood flood-opacity="0" result="BackgroundImageFix"/>
<feColorMatrix in="SourceAlpha" type="matrix" values="0 0 0 0 0 0 0 0 0 0 0 0 0 0 0 0 0 0 127 0" result="hardAlpha"/>
<feOffset dy="4"/>
<feGaussianBlur stdDeviation="2"/>
<feComposite in2="hardAlpha" operator="out"/>
<feColorMatrix type="matrix" values="0 0 0 0 0 0 0 0 0 0 0 0 0 0 0 0 0 0 0.25 0"/>
<feBlend mode="normal" in2="BackgroundImageFix" result="effect1_dropShadow_16370_2"/>
<feBlend mode="normal" in="SourceGraphic" in2="effect1_dropShadow_16370_2" result="shape"/>
</filter>
</defs>
</svg>
