<svg width="683" height="549" viewBox="0 0 683 549" fill="none" xmlns="http://www.w3.org/2000/svg">
<path d="M41.8666 1C26.4 4.06665 9.46665 18.0666 4.13331 32.3333C-10.5334 70.8666 19.4666 109 60.1333 103.4C75.8667 101.267 91.8666 89.6666 98.9333 75.1333L101.867 68.9999H216H330.267L333.333 75.5333C337.067 83.8 347.867 94.4666 356.8 98.8666C370.133 105.533 388.933 105.4 402.667 98.7333C411.733 94.3333 421.333 84.8666 425.867 75.8L429.333 68.9999H464.533C484 68.9999 504.4 69.6666 510.133 70.4666C536 74.0666 559.6 87.8 575.333 108.333C583.733 119.533 588 127.667 592.267 141C594.8 149.4 595.333 153.8 595.333 169C595.333 188.733 593.067 199 585.333 214.333C573.2 238.467 549.467 257.667 522 265.8C514.8 267.933 505.733 268.2 431.867 268.6L349.6 269.133L348.8 264.067C346 249.133 334.533 234.333 320.133 227.267C312 223.4 310.267 223 298 223C285.733 223 284 223.4 276 227.133C261.6 234.067 251.333 246.333 247.6 261L245.733 268.333L185.2 269L124.667 269.8L113.333 273.267C97.2 278.333 90.1333 281.533 77.8666 289.667C50.6666 307.8 30.9333 337.933 25.3333 369.8C22.5333 385.267 24.1333 412.467 28.6666 426.333C42.9333 470.733 76.8 501.533 121.733 511C127.333 512.2 138.267 513 149.867 513H168.8L171.733 519.133C176 527.8 186.667 538.6 195.333 542.867C216.267 553 239.333 549.267 255.6 533C259.2 529.267 263.733 523.267 265.333 519.533L268.4 513H400H531.6L535.733 519.533C543.467 532.067 555.2 537.8 570.267 536.6C605.867 533.8 614.533 485.267 582.4 468.867L577.333 466.2L577.6 439.933L578 413.667L627.733 413L677.6 412.333L680.133 409.133C684.667 403.667 683.333 399.8 671.467 382.467L660.267 366.2L671.467 350.067C683.867 332.333 684.933 328.467 679.333 323L676.133 319.667H627.333C589.467 319.667 578.533 319.267 578.133 318.067C577.733 317.133 577.2 314.6 576.8 312.6C575.6 307.267 568.4 303.933 562.667 306.333C560.4 307.267 557.867 309.267 557.2 310.733C556.133 312.467 555.733 337.8 555.867 389.8L556 466.333L550.933 468.867C544.533 472.2 537.733 478.867 534.533 485.267L532 490.333H401.467H270.933L269.333 483.933C261.467 452.733 226.4 435.933 196.8 449.4C182.933 455.8 173.067 467.533 168.667 482.733L166.533 490.333H148.8C127.6 490.333 115.6 487.667 100.267 479.667C66.6666 462.2 46.6666 429.533 46.5333 391.667C46.4 374.067 49.0667 362.6 56.6666 346.867C66.5333 326.333 86.5333 307.667 107.467 299.133C124.267 292.333 131.333 291.667 192.4 291.667H248.8L250.533 296.333C253.2 303.933 265.733 316.333 275.467 321.133C300.267 333.4 332.267 322.467 344.267 297.667L347.2 291.667H426.133C511.6 291.667 517.733 291.267 537.6 284.2C574.667 271 604.267 238.867 614.933 200.333C619.067 185.267 619.067 153.133 614.933 138.2C603.2 94.9999 570.133 62.2 526.8 50.5999C514.667 47.3999 511.733 47.2666 472.4 46.5999L430.667 46.0666V42.3333C430.667 36.4666 421.867 20.5999 415.467 14.5999C396.267 -3.13342 368.8 -4.60004 347.867 10.8666C339.867 16.7333 331.333 29.6666 329.2 38.9999L327.6 46.3333H216H104.267L102.8 40.2C95.8666 12.5999 69.3333 -4.33337 41.8666 1ZM67.2 26.8666C75.8667 31.9333 80.4 39.7999 81.0666 50.4666C81.7333 61.1333 78.9333 67.6666 70.5333 74.7333C51.4666 91.1333 22.5333 76.7333 22.6666 50.9999C22.8 40.2 31.6 28.3333 42.8 24.0666C49.3333 21.6666 60.4 22.8666 67.2 26.8666ZM393.067 26.2C412.133 35.9333 414.4 63.1333 397.2 75.5333C375.467 91.3999 345.867 73.1333 350.8 46.8666C354.533 27.1333 375.067 16.9999 393.067 26.2ZM309.067 247.133C320 251.667 326.8 261.933 326.8 274.2C326.933 300.6 295.333 313.533 276.933 294.867C270.667 288.6 268.8 283.8 268.667 274.2C268.667 266.733 269.2 264.467 272.667 259C280 247 296.267 241.667 309.067 247.133ZM642.4 352.2C633.467 365.133 633.467 367.533 642.533 380.333L649.467 390.333H613.467H577.333V366.333V342.333H613.333H649.333L642.4 352.2ZM232 470.333C257.067 483.133 250.933 521.667 223.2 525.8C206 528.333 189.467 514.067 189.333 496.6C189.2 474.6 212.4 460.333 232 470.333ZM573.333 489.933C585.067 496.867 580.267 514.333 566.667 514.333C562.267 514.333 560.267 513.533 557.2 510.467C546.267 499.4 560 481.933 573.333 489.933Z" fill="#B6C5CA"/>
</svg>
